<?xml version="1.0" encoding="utf-8"?>
<!DOCTYPE svg PUBLIC "-//W3C//DTD SVG 1.1//EN" "http://www.w3.org/Graphics/SVG/1.1/DTD/svg11.dtd">
<svg version="1.1" xmlns="http://www.w3.org/2000/svg" xmlns:xlink="http://www.w3.org/1999/xlink" x="0px" y="0px" 
     viewBox="0 0 1000 1000" enable-background="new 0 0 1000 1000" xml:space="preserve" fill="#6F6F6F">
    <g>
        <g transform="translate(0.000000,511.000000) scale(0.100000,-0.100000)">
            <path d="M4684.8,3945.6c-410.8-138.4-727.1-498.7-817.2-927.1c-41.7-191.1-39.5-309.8,0-503.1c92.3-435,419.6-797.4,845.8-933.7c228.5-72.5,520.6-74.7,742.5-2.2c388.8,125.2,674.4,410.8,806.2,799.6c79.1,239.5,81.3,237.3-92.3,177.9c-564.6-193.3-1181.9,162.6-1324.7,757.9c-37.3,160.4-17.6,448.1,39.5,580l46.1,103.3h-48.3C4856.1,3998.4,4768.2,3974.2,4684.8,3945.6z"/><path d="M100-1274v-2504.4h285.6h285.6v571.2v571.2H2857h2185.8v527.2v527.2H2857H671.2v1406v1406H385.6H100V-1274z"/><path d="M1714.7,621.9c-470.1-169.2-692-696.4-474.5-1135.8C1385.1-808.3,1651-973,1984.9-973c164.8,0,195.5,6.6,342.7,81.3c182.3,87.9,307.6,213.1,386.6,380c193.3,413,19.8,894.1-395.4,1089.6C2138.6,663.6,1886,681.2,1714.7,621.9z"/><path d="M3694-276.6c-344.9-83.5-623.9-307.6-777.7-626.1c-50.5-101.1-96.7-221.9-105.5-265.8l-13.2-83.5h1122.6h1122.6v505.3v505.3l-608.5-2.2C3986.2-243.7,3788.5-252.5,3694-276.6z"/><path d="M5394.3-1438.8V-2636h1966.2h1966.2v-571.2v-571.2h287.8H9900l-6.6,1280.7c-6.6,1162.1-11,1289.5-48.3,1399.4c-103.2,318.5-307.5,566.8-582.2,711.8c-276.8,145-261.4,145-2159.5,145H5394.3V-1438.8z"/>
        </g>
    </g>
</svg>
